<svg height="500" width="237"><defs>
    <linearGradient id="grad1" x1="0%" y1="0%" x2="0%" y2="100%">
      <stop offset="0%"
      style="stop-color:rgb(255,80,80)" />
      <stop offset="50%"
      style="stop-color:rgb(255,255,80)" />
      <stop offset="100%"
      style="stop-color:rgb(80,255,80)" />
    </linearGradient>
  </defs>
  <rect width="237" height="500" fill="url(#grad1)" /><path d="
M60 0L60 500
M120 0L120 500
M180 0L180 500
M240 0L240 500
M300 0L300 500
M360 0L360 500
M420 0L420 500
M480 0L480 500
M540 0L540 500
M600 0L600 500
M660 0L660 500
M720 0L720 500
M780 0L780 500
M840 0L840 500
M900 0L900 500
M960 0L960 500
M1020 0L1020 500
M1080 0L1080 500
M1140 0L1140 500
M1200 0L1200 500
M1260 0L1260 500
M1320 0L1320 500
M1380 0L1380 500
M0 166L1440 166M0 333L1440 333Z"stroke="white"/><polyline points="
0,-467500 
1,-445500 
2,-456500 
3,-467500 
4,-467500 
5,-467500 
6,-467500 
7,-451000 
8,-462000 
9,-456500 
10,-467500 
11,-456500 
12,-467500 
13,-456500 
14,-462000 
15,-467500 
16,-473000 
17,-456500 
18,-462000 
19,-451000 
20,-462000 
21,-462000 
22,-462000 
23,-451000 
24,-451000 
25,-451000 
26,-451000 
27,-467500 
28,-478500 
29,-456500 
30,-451000 
31,-462000 
32,-467500 
33,-462000 
34,-467500 
35,-451000 
36,-451000 
37,-467500 
38,-462000 
39,-462000 
40,-478500 
41,-462000 
42,-451000 
43,-456500 
44,-467500 
45,-451000 
46,-467500 
47,-462000 
48,-456500 
49,-451000 
50,-456500 
51,-451000 
52,-462000 
53,-467500 
54,-456500 
55,-467500 
56,-456500 
57,-462000 
58,-456500 
59,-451000 
60,-506000 
61,-544500 
62,-550000 
63,-544500 
64,-550000 
65,-550000 
66,-550000 
67,-566500 
68,-555500 
69,-555500 
70,-561000 
71,-577500 
72,-577500 
73,-561000 
74,-561000 
75,-577500 
76,-566500 
77,-572000 
78,-577500 
79,-583000 
80,-583000 
81,-572000 
82,-588500 
83,-588500 
84,-588500 
85,-588500 
86,-583000 
87,-572000 
88,-577500 
89,-577500 
90,-588500 
91,-572000 
92,-583000 
93,-583000 
94,-583000 
95,-583000 
96,-583000 
97,-566500 
98,-572000 
99,-555500 
100,-572000 
101,-555500 
102,-566500 
103,-561000 
104,-561000 
105,-561000 
106,-555500 
107,-555500 
108,-566500 
109,-555500 
110,-566500 
111,-561000 
112,-561000 
113,-561000 
114,-561000 
115,-572000 
116,-566500 
117,-566500 
118,-572000 
119,-577500 
120,-577500 
121,-577500 
122,-577500 
123,-577500 
124,-588500 
125,-594000 
126,-572000 
127,-572000 
128,-583000 
129,-577500 
130,-572000 
131,-572000 
132,-572000 
133,-577500 
134,-561000 
135,-550000 
136,-572000 
137,-566500 
138,-566500 
139,-550000 
140,-555500 
141,-566500 
142,-561000 
143,-555500 
144,-550000 
145,-561000 
146,-561000 
147,-566500 
148,-561000 
149,-561000 
150,-561000 
151,-555500 
152,-572000 
153,-561000 
154,-561000 
155,-572000 
156,-561000 
157,-572000 
158,-583000 
159,-583000 
160,-572000 
161,-577500 
162,-583000 
163,-588500 
164,-577500 
165,-577500 
166,-583000 
167,-583000 
168,-594000 
169,-566500 
170,-594000 
171,-577500 
172,-583000 
173,-577500 
174,-583000 
175,-588500 
176,-583000 
177,-528000 
178,-495000 
179,-495000 
180,-473000 
181,-495000 
182,-467500 
183,-467500 
184,-456500 
185,-451000 
186,-445500 
187,-445500 
188,-451000 
189,-462000 
190,-467500 
191,-456500 
192,-445500 
193,-478500 
194,-451000 
195,-451000 
196,-445500 
197,-456500 
198,-462000 
199,-445500 
200,-456500 
201,-456500 
202,-462000 
203,-445500 
204,-462000 
205,-478500 
206,-451000 
207,-451000 
208,-462000 
209,-462000 
210,-456500 
211,-445500 
212,-462000 
213,-456500 
214,-467500 
215,-451000 
216,-467500 
217,-467500 
218,-467500 
219,-462000 
220,-451000 
221,-462000 
222,-462000 
223,-451000 
224,-451000 
225,-462000 
226,-462000 
227,-451000 
228,-451000 
229,-473000 
230,-467500 
231,-456500 
232,-467500 
233,-462000 
234,-467500 
235,-456500 
236,-451000 
"style="fill:none;stroke:black;stroke-width:1" /><polyline points="
"style="fill:none;stroke:black;stroke-width:1" />
  <text fill="black" font-size="12" font-family="Verdana"
  x="10" y="20">temp 25-75c</text>
</svg>
