<svg height="500" width="1440"><defs>
    <linearGradient id="grad1" x1="0%" y1="0%" x2="0%" y2="100%">
      <stop offset="0%"
      style="stop-color:rgb(255,80,80)" />
      <stop offset="50%"
      style="stop-color:rgb(255,255,80)" />
      <stop offset="100%"
      style="stop-color:rgb(80,255,80)" />
    </linearGradient>
  </defs>
  <rect width="1440" height="500" fill="url(#grad1)" /><path d="
M60 0L60 500
M120 0L120 500
M180 0L180 500
M240 0L240 500
M300 0L300 500
M360 0L360 500
M420 0L420 500
M480 0L480 500
M540 0L540 500
M600 0L600 500
M660 0L660 500
M720 0L720 500
M780 0L780 500
M840 0L840 500
M900 0L900 500
M960 0L960 500
M1020 0L1020 500
M1080 0L1080 500
M1140 0L1140 500
M1200 0L1200 500
M1260 0L1260 500
M1320 0L1320 500
M1380 0L1380 500
M0 166L1440 166M0 333L1440 333Z"stroke="white"/><polyline points="
0,200 
1,250 
2,200 
3,200 
4,190 
5,130 
6,110 
7,160 
8,160 
9,170 
10,120 
11,110 
12,160 
13,150 
14,150 
15,140 
16,170 
17,190 
18,150 
19,160 
20,210 
21,200 
22,250 
23,220 
24,200 
25,200 
26,210 
27,190 
28,220 
29,250 
30,300 
31,250 
32,290 
33,270 
34,280 
35,270 
36,280 
37,320 
38,340 
39,340 
40,290 
41,280 
42,250 
43,220 
44,220 
45,200 
46,180 
47,150 
48,160 
49,170 
50,200 
51,240 
52,240 
53,240 
54,150 
55,130 
56,100 
57,100 
58,140 
59,150 
60,200 
61,190 
62,200 
63,200 
64,220 
65,210 
66,250 
67,220 
68,170 
69,120 
70,150 
71,160 
72,200 
73,170 
74,220 
75,210 
76,200 
77,180 
78,240 
79,250 
80,230 
81,200 
82,140 
83,130 
84,170 
85,160 
86,200 
87,180 
88,70 
89,50 
90,110 
91,150 
92,180 
93,160 
94,190 
95,190 
96,190 
97,190 
98,160 
99,180 
100,160 
101,140 
102,110 
103,150 
104,160 
105,200 
106,110 
107,140 
108,160 
109,250 
110,250 
111,260 
112,250 
113,280 
114,300 
115,310 
116,270 
117,290 
118,300 
119,300 
120,250 
121,200 
122,220 
123,190 
124,140 
125,180 
126,190 
127,220 
128,250 
129,250 
130,240 
131,220 
132,140 
133,120 
134,120 
135,90 
136,100 
137,110 
138,60 
139,60 
140,140 
141,160 
142,170 
143,160 
144,160 
145,140 
146,150 
147,90 
148,160 
149,150 
150,110 
151,100 
152,0 
153,-40 
154,-30 
155,-50 
156,-30 
157,10 
158,10 
159,90 
160,110 
161,180 
162,200 
163,170 
164,160 
165,170 
166,180 
167,190 
168,190 
169,250 
170,260 
171,270 
172,250 
173,230 
174,200 
175,120 
176,70 
177,170 
178,100 
179,110 
180,70 
181,80 
182,80 
183,50 
184,60 
185,70 
186,120 
187,120 
188,90 
189,10 
190,80 
191,100 
192,100 
193,140 
194,180 
195,230 
196,220 
197,150 
198,160 
199,150 
200,150 
201,170 
202,160 
203,200 
204,160 
205,190 
206,210 
207,210 
208,200 
209,200 
210,180 
211,230 
212,200 
213,150 
214,120 
215,160 
216,110 
217,80 
218,110 
219,100 
220,160 
221,110 
222,110 
223,50 
224,100 
225,110 
226,100 
227,110 
228,110 
229,160 
230,160 
231,180 
232,190 
233,160 
234,160 
235,170 
236,110 
237,180 
238,150 
239,160 
240,150 
241,180 
242,160 
243,150 
244,200 
245,250 
246,220 
247,220 
248,200 
249,160 
250,140 
251,140 
252,130 
253,200 
254,110 
255,130 
256,110 
257,110 
258,110 
259,120 
260,130 
261,140 
262,160 
263,110 
264,150 
265,140 
266,190 
267,120 
268,150 
269,150 
270,170 
271,150 
272,160 
273,130 
274,170 
275,140 
276,110 
277,100 
278,160 
279,160 
280,140 
281,110 
282,90 
283,110 
284,120 
285,60 
286,130 
287,150 
288,100 
289,130 
290,100 
291,30 
292,30 
293,60 
294,-10 
295,10 
296,-10 
297,60 
298,70 
299,70 
300,20 
301,40 
302,80 
303,60 
304,60 
305,60 
306,70 
307,40 
308,50 
309,40 
310,90 
311,60 
312,110 
313,130 
314,50 
315,60 
316,20 
317,30 
318,70 
319,110 
320,110 
321,150 
322,130 
323,110 
324,70 
325,80 
326,110 
327,150 
328,180 
329,150 
330,150 
331,170 
332,220 
333,250 
334,290 
335,200 
336,180 
337,200 
338,180 
339,140 
340,150 
341,170 
342,180 
343,170 
344,150 
345,150 
346,140 
347,160 
348,180 
349,170 
350,160 
351,180 
352,190 
353,160 
354,120 
355,110 
356,80 
357,60 
358,100 
359,110 
360,60 
361,30 
362,80 
363,90 
364,90 
365,100 
366,100 
367,120 
368,100 
369,70 
370,90 
371,90 
372,50 
373,60 
374,10 
375,30 
376,20 
377,50 
378,40 
379,0 
380,60 
381,110 
382,130 
383,120 
384,140 
385,150 
386,130 
387,110 
388,140 
389,110 
390,110 
391,110 
392,130 
393,70 
394,50 
395,50 
396,100 
397,110 
398,100 
399,110 
400,140 
401,60 
402,110 
403,80 
404,160 
405,180 
406,210 
407,150 
408,200 
409,200 
410,150 
411,190 
412,170 
413,160 
414,160 
415,200 
416,120 
417,150 
418,110 
419,150 
420,110 
421,120 
422,70 
423,60 
424,60 
425,10 
426,50 
427,60 
428,80 
429,100 
430,110 
431,130 
432,80 
433,70 
434,80 
435,50 
436,120 
437,130 
438,80 
439,100 
440,70 
441,80 
442,60 
443,40 
444,20 
445,70 
446,140 
447,120 
448,100 
449,60 
450,10 
451,20 
452,60 
453,130 
454,110 
455,160 
456,160 
457,180 
458,160 
459,120 
460,60 
461,60 
462,50 
463,10 
464,10 
465,90 
466,110 
467,110 
468,0 
469,10 
470,60 
471,70 
472,80 
473,60 
474,0 
475,20 
476,-30 
477,-50 
478,-10 
479,-10 
480,20 
481,30 
482,70 
483,50 
484,30 
485,40 
486,10 
487,110 
488,90 
489,120 
490,110 
491,150 
492,150 
493,150 
494,150 
495,180 
496,220 
497,200 
498,160 
499,110 
500,70 
501,110 
502,70 
503,80 
504,70 
505,90 
506,40 
507,40 
508,10 
509,60 
510,90 
511,90 
512,30 
513,50 
514,60 
515,110 
516,110 
517,170 
518,160 
519,160 
520,150 
521,110 
522,150 
523,120 
524,80 
525,60 
526,110 
527,150 
528,190 
529,170 
530,170 
531,130 
532,120 
533,60 
534,110 
535,110 
536,130 
537,40 
538,110 
539,160 
540,100 
541,90 
542,80 
543,100 
544,130 
545,110 
546,140 
547,110 
548,90 
549,70 
550,70 
551,150 
552,70 
553,70 
554,120 
555,120 
556,110 
557,50 
558,-50 
559,50 
560,10 
561,30 
562,10 
563,-20 
564,-30 
565,10 
566,20 
567,30 
568,20 
569,40 
570,60 
571,80 
572,70 
573,110 
574,150 
575,140 
576,160 
577,130 
578,130 
579,130 
580,70 
581,30 
582,-20 
583,20 
584,20 
585,50 
586,90 
587,110 
588,120 
589,80 
590,40 
591,0 
592,40 
593,70 
594,90 
595,100 
596,90 
597,100 
598,50 
599,40 
600,10 
601,10 
602,20 
603,60 
604,80 
605,100 
606,50 
607,60 
608,90 
609,110 
610,70 
611,90 
612,60 
613,110 
614,70 
615,60 
616,80 
617,70 
618,80 
619,80 
620,40 
621,-30 
622,-30 
623,-20 
624,-10 
625,-10 
626,50 
627,10 
628,10 
629,30 
630,50 
631,50 
632,20 
633,20 
634,10 
635,30 
636,30 
637,70 
638,60 
639,50 
640,10 
641,20 
642,10 
643,60 
644,60 
645,80 
646,90 
647,70 
648,80 
649,50 
650,120 
651,120 
652,100 
653,110 
654,180 
655,90 
656,80 
657,140 
658,160 
659,140 
660,150 
661,160 
662,200 
663,200 
664,240 
665,160 
666,150 
667,100 
668,100 
669,110 
670,150 
671,160 
672,130 
673,110 
674,110 
675,80 
676,30 
677,50 
678,90 
679,40 
680,10 
681,0 
682,-20 
683,20 
684,70 
685,110 
686,100 
687,60 
688,50 
689,60 
690,20 
691,60 
692,100 
693,160 
694,120 
695,140 
696,140 
697,130 
698,100 
699,100 
700,80 
701,90 
702,40 
703,100 
704,50 
705,50 
706,70 
707,10 
708,20 
709,-230 
710,-170 
711,-80 
712,-80 
713,-60 
714,-100 
715,-90 
716,-50 
717,-40 
718,-30 
719,20 
720,20 
721,100 
722,40 
723,50 
724,0 
725,60 
726,130 
727,110 
728,110 
729,100 
730,140 
731,120 
732,120 
733,100 
734,120 
735,110 
736,150 
737,80 
738,50 
739,40 
740,60 
741,60 
742,90 
743,120 
744,140 
745,200 
746,140 
747,60 
748,90 
749,20 
750,60 
751,20 
752,10 
753,-40 
754,10 
755,-10 
756,-10 
757,10 
758,20 
759,50 
760,10 
761,40 
762,60 
763,60 
764,110 
765,80 
766,60 
767,120 
768,130 
769,130 
770,180 
771,200 
772,150 
773,90 
774,60 
775,20 
776,60 
777,60 
778,110 
779,40 
780,80 
781,110 
782,80 
783,130 
784,140 
785,130 
786,100 
787,120 
788,130 
789,90 
790,80 
791,110 
792,180 
793,160 
794,160 
795,90 
796,90 
797,30 
798,30 
799,0 
800,-20 
801,20 
802,80 
803,70 
804,40 
805,10 
806,10 
807,60 
808,80 
809,70 
810,150 
811,110 
812,110 
813,140 
814,160 
815,130 
816,110 
817,60 
818,160 
819,160 
820,160 
821,150 
822,160 
823,120 
824,120 
825,100 
826,110 
827,150 
828,160 
829,160 
830,150 
831,60 
832,70 
833,130 
834,90 
835,120 
836,120 
837,100 
838,80 
839,60 
840,120 
841,110 
842,130 
843,60 
844,80 
845,110 
846,140 
847,130 
848,150 
849,90 
850,80 
851,60 
852,90 
853,60 
854,80 
855,140 
856,140 
857,130 
858,140 
859,190 
860,190 
861,160 
862,130 
863,170 
864,150 
865,140 
866,150 
867,160 
868,140 
869,150 
870,90 
871,120 
872,100 
873,140 
874,140 
875,150 
876,220 
877,160 
878,190 
879,210 
880,210 
881,190 
882,190 
883,210 
884,200 
885,110 
886,190 
887,200 
888,150 
889,100 
890,120 
891,110 
892,140 
893,150 
894,180 
895,130 
896,180 
897,160 
898,190 
899,120 
900,120 
901,90 
902,130 
903,160 
904,150 
905,120 
906,110 
907,130 
908,160 
909,160 
910,200 
911,200 
912,200 
913,200 
914,210 
915,240 
916,250 
917,210 
918,200 
919,210 
920,200 
921,190 
922,180 
923,200 
924,160 
925,130 
926,140 
927,110 
928,140 
929,150 
930,140 
931,150 
932,170 
933,110 
934,110 
935,80 
936,110 
937,80 
938,110 
939,50 
940,50 
941,60 
942,70 
943,80 
944,100 
945,120 
946,120 
947,160 
948,140 
949,110 
950,70 
951,160 
952,170 
953,170 
954,150 
955,160 
956,160 
957,130 
958,130 
959,140 
960,150 
961,170 
962,200 
963,200 
964,220 
965,260 
966,260 
967,260 
968,210 
969,210 
970,210 
971,190 
972,220 
973,180 
974,160 
975,140 
976,80 
977,80 
978,90 
979,100 
980,100 
981,110 
982,110 
983,160 
984,160 
985,170 
986,210 
987,190 
988,180 
989,200 
990,180 
991,210 
992,170 
993,200 
994,240 
995,210 
996,200 
997,160 
998,150 
999,160 
1000,150 
1001,150 
1002,160 
1003,160 
1004,110 
1005,110 
1006,110 
1007,140 
1008,140 
1009,160 
1010,160 
1011,160 
1012,170 
1013,180 
1014,160 
1015,200 
1016,170 
1017,200 
1018,180 
1019,230 
1020,240 
1021,280 
1022,290 
1023,320 
1024,300 
1025,310 
1026,310 
1027,340 
1028,350 
1029,300 
1030,280 
1031,300 
1032,270 
1033,320 
1034,260 
1035,270 
1036,280 
1037,270 
1038,270 
1039,260 
1040,200 
1041,140 
1042,100 
1043,150 
1044,110 
1045,110 
1046,160 
1047,200 
1048,170 
1049,150 
1050,120 
1051,70 
1052,130 
1053,140 
1054,130 
1055,160 
1056,100 
1057,70 
1058,150 
1059,110 
1060,150 
1061,180 
1062,160 
1063,170 
1064,240 
1065,200 
1066,190 
1067,150 
1068,170 
1069,200 
1070,210 
1071,200 
1072,220 
1073,180 
1074,140 
1075,120 
1076,160 
1077,140 
1078,130 
1079,90 
1080,100 
1081,110 
1082,70 
1083,80 
1084,110 
1085,70 
1086,110 
1087,100 
1088,130 
1089,60 
1090,80 
1091,30 
1092,70 
1093,40 
1094,50 
1095,50 
1096,90 
1097,120 
1098,120 
1099,110 
1100,80 
1101,80 
1102,100 
1103,110 
1104,110 
1105,110 
1106,60 
1107,110 
1108,90 
1109,150 
1110,130 
1111,110 
1112,90 
1113,110 
1114,160 
1115,130 
1116,110 
1117,160 
1118,200 
1119,180 
1120,220 
1121,180 
1122,210 
1123,220 
1124,250 
1125,170 
1126,180 
1127,200 
1128,210 
1129,200 
1130,220 
1131,200 
1132,160 
1133,160 
1134,110 
1135,110 
1136,130 
1137,150 
1138,140 
1139,80 
1140,60 
1141,40 
1142,60 
1143,120 
1144,50 
1145,60 
1146,30 
1147,30 
1148,50 
1149,90 
1150,100 
1151,110 
1152,80 
1153,120 
1154,150 
1155,160 
1156,130 
1157,130 
1158,180 
1159,190 
1160,160 
1161,200 
1162,170 
1163,180 
1164,130 
1165,160 
1166,30 
1167,-10 
1168,20 
1169,50 
1170,70 
1171,60 
1172,80 
1173,20 
1174,40 
1175,50 
1176,40 
1177,100 
1178,130 
1179,90 
1180,50 
1181,60 
1182,60 
1183,70 
1184,30 
1185,50 
1186,70 
1187,110 
1188,110 
1189,140 
1190,110 
1191,130 
1192,110 
1193,160 
1194,150 
1195,170 
1196,150 
1197,150 
1198,140 
1199,140 
1200,260 
1201,280 
1202,180 
1203,140 
1204,290 
1205,400 
1206,520 
1207,590 
1208,630 
1209,630 
1210,690 
1211,750 
1212,790 
1213,800 
1214,810 
1215,840 
1216,860 
1217,890 
1218,900 
1219,880 
1220,880 
1221,880 
1222,890 
1223,900 
1224,860 
1225,860 
1226,670 
1227,660 
1228,590 
1229,540 
1230,500 
1231,520 
1232,510 
1233,480 
1234,460 
1235,410 
1236,370 
1237,330 
1238,260 
1239,300 
1240,250 
1241,300 
1242,220 
1243,250 
1244,240 
1245,300 
1246,290 
1247,250 
1248,250 
1249,260 
1250,280 
1251,290 
1252,280 
1253,230 
1254,200 
1255,230 
1256,190 
1257,160 
1258,200 
1259,220 
1260,280 
1261,230 
1262,250 
1263,200 
1264,160 
1265,200 
1266,240 
1267,280 
1268,270 
1269,300 
1270,260 
1271,230 
1272,180 
1273,220 
1274,230 
1275,250 
1276,260 
1277,290 
1278,280 
1279,250 
1280,250 
1281,200 
1282,190 
1283,190 
1284,240 
1285,270 
1286,250 
1287,230 
1288,270 
1289,250 
1290,290 
1291,300 
1292,310 
1293,340 
1294,320 
1295,300 
1296,340 
1297,340 
1298,310 
1299,340 
1300,360 
1301,350 
1302,360 
1303,340 
1304,330 
1305,310 
1306,250 
1307,240 
1308,280 
1309,250 
1310,250 
1311,180 
1312,180 
1313,200 
1314,230 
1315,250 
1316,300 
1317,270 
1318,250 
1319,190 
1320,220 
1321,160 
1322,240 
1323,280 
1324,340 
1325,320 
1326,270 
1327,230 
1328,230 
1329,260 
1330,290 
1331,250 
1332,240 
1333,240 
1334,220 
1335,200 
1336,180 
1337,150 
1338,140 
1339,190 
1340,220 
1341,200 
1342,260 
1343,200 
1344,240 
1345,290 
1346,320 
1347,280 
1348,280 
1349,300 
1350,350 
1351,300 
1352,300 
1353,290 
1354,320 
1355,280 
1356,310 
1357,340 
1358,330 
1359,300 
1360,280 
1361,220 
1362,160 
1363,130 
1364,160 
1365,130 
1366,160 
1367,150 
1368,160 
1369,180 
1370,160 
1371,200 
1372,200 
1373,220 
1374,220 
1375,250 
1376,250 
1377,250 
1378,250 
1379,200 
1380,250 
1381,250 
1382,300 
1383,300 
1384,310 
1385,260 
1386,270 
1387,210 
1388,170 
1389,160 
1390,190 
1391,250 
1392,250 
1393,290 
1394,160 
1395,200 
1396,170 
1397,120 
1398,110 
1399,110 
1400,150 
1401,160 
1402,160 
1403,180 
1404,150 
1405,160 
1406,190 
1407,200 
1408,170 
1409,150 
1410,160 
1411,180 
1412,160 
1413,170 
1414,160 
1415,170 
1416,770 
1417,800 
1418,880 
1419,860 
1420,830 
1421,820 
1422,780 
1423,800 
1424,770 
1425,790 
1426,780 
1427,710 
1428,720 
1429,720 
1430,740 
1431,740 
1432,790 
1433,820 
1434,840 
1435,610 
1436,420 
1437,260 
1438,150 
1439,0 
"style="fill:none;stroke:black;stroke-width:1" /><polyline points="
"style="fill:none;stroke:black;stroke-width:1" />
  <text fill="black" font-size="12" font-family="Verdana"
  x="10" y="20">temp 25-75c</text>
</svg>
