<svg height="500" width="1185"><defs>
    <linearGradient id="grad1" x1="0%" y1="0%" x2="0%" y2="100%">
      <stop offset="0%"
      style="stop-color:rgb(255,80,80)" />
      <stop offset="50%"
      style="stop-color:rgb(255,255,80)" />
      <stop offset="100%"
      style="stop-color:rgb(80,255,80)" />
    </linearGradient>
  </defs>
  <rect width="1185" height="500" fill="url(#grad1)" /><path d="
M60 0L60 500
M120 0L120 500
M180 0L180 500
M240 0L240 500
M300 0L300 500
M360 0L360 500
M420 0L420 500
M480 0L480 500
M540 0L540 500
M600 0L600 500
M660 0L660 500
M720 0L720 500
M780 0L780 500
M840 0L840 500
M900 0L900 500
M960 0L960 500
M1020 0L1020 500
M1080 0L1080 500
M1140 0L1140 500
M1200 0L1200 500
M1260 0L1260 500
M1320 0L1320 500
M1380 0L1380 500
M0 166L1440 166M0 333L1440 333Z"stroke="white"/><polyline points="
0,282 
5,304 
10,293 
15,282 
20,282 
25,282 
30,282 
35,298 
40,287 
45,293 
50,282 
55,293 
60,282 
65,293 
70,287 
75,282 
80,276 
85,293 
90,287 
95,298 
100,287 
105,287 
110,287 
115,298 
120,298 
125,298 
130,298 
135,282 
140,271 
145,293 
150,298 
155,287 
160,282 
165,287 
170,282 
175,298 
180,298 
185,282 
190,287 
195,287 
200,271 
205,287 
210,298 
215,293 
220,282 
225,298 
230,282 
235,287 
240,293 
245,298 
250,293 
255,298 
260,287 
265,282 
270,293 
275,282 
280,293 
285,287 
290,293 
295,298 
300,243 
305,205 
310,199 
315,205 
320,199 
325,199 
330,199 
335,183 
340,194 
345,194 
350,188 
355,172 
360,172 
365,188 
370,188 
375,172 
380,183 
385,177 
390,172 
395,166 
400,166 
405,177 
410,161 
415,161 
420,161 
425,161 
430,166 
435,177 
440,172 
445,172 
450,161 
455,177 
460,166 
465,166 
470,166 
475,166 
480,166 
485,183 
490,177 
495,194 
500,177 
505,194 
510,183 
515,188 
520,188 
525,188 
530,194 
535,194 
540,183 
545,194 
550,183 
555,188 
560,188 
565,188 
570,188 
575,177 
580,183 
585,183 
590,177 
595,172 
600,172 
605,172 
610,172 
615,172 
620,161 
625,155 
630,177 
635,177 
640,166 
645,172 
650,177 
655,177 
660,177 
665,172 
670,188 
675,199 
680,177 
685,183 
690,183 
695,199 
700,194 
705,183 
710,188 
715,194 
720,199 
725,188 
730,188 
735,183 
740,188 
745,188 
750,188 
755,194 
760,177 
765,188 
770,188 
775,177 
780,188 
785,177 
790,166 
795,166 
800,177 
805,172 
810,166 
815,161 
820,172 
825,172 
830,166 
835,166 
840,155 
845,183 
850,155 
855,172 
860,166 
865,172 
870,166 
875,161 
880,166 
885,221 
890,254 
895,254 
900,276 
905,254 
910,282 
915,282 
920,293 
925,298 
930,304 
935,304 
940,298 
945,287 
950,282 
955,293 
960,304 
965,271 
970,298 
975,298 
980,304 
985,293 
990,287 
995,304 
1000,293 
1005,293 
1010,287 
1015,304 
1020,287 
1025,271 
1030,298 
1035,298 
1040,287 
1045,287 
1050,293 
1055,304 
1060,287 
1065,293 
1070,282 
1075,298 
1080,282 
1085,282 
1090,282 
1095,287 
1100,298 
1105,287 
1110,287 
1115,298 
1120,298 
1125,287 
1130,287 
1135,298 
1140,298 
1145,276 
1150,282 
1155,293 
1160,282 
1165,287 
1170,282 
1175,293 
1180,298 
"style="fill:none;stroke:black;stroke-width:1" /><polyline points="
"style="fill:none;stroke:black;stroke-width:1" />
  <text fill="black" font-size="12" font-family="Verdana"
  x="10" y="20">temp 25-75c</text>
</svg>
